<svg 
 xmlns="http://www.w3.org/2000/svg"
 xmlns:xlink="http://www.w3.org/1999/xlink"
 width="10px" height="38px">
<path fill-rule="evenodd"  fill="rgb(25, 27, 29)"
 d="M9.616,32.929 C9.616,32.962 9.620,32.994 9.620,33.027 C9.608,33.805 9.380,34.530 8.996,35.155 C8.752,35.581 8.444,35.963 8.077,36.278 C7.372,36.882 6.499,37.208 5.529,37.263 C5.374,37.276 5.216,37.282 5.056,37.280 C4.960,37.279 4.865,37.269 4.770,37.262 C4.770,37.262 4.770,37.262 4.770,37.262 C4.770,37.262 4.770,37.262 4.770,37.262 C4.385,37.233 4.014,37.160 3.663,37.044 C3.269,36.923 2.905,36.762 2.579,36.557 C1.755,36.042 1.164,35.270 0.859,34.319 C0.704,33.870 0.618,33.391 0.626,32.892 C0.626,32.872 0.629,32.852 0.630,32.832 C0.629,32.771 0.622,32.713 0.624,32.651 C0.624,32.614 0.626,32.578 0.630,32.542 L3.777,1.510 C3.848,0.797 4.474,0.255 5.220,0.258 C5.964,0.260 6.588,0.809 6.657,1.523 L9.618,32.678 C9.624,32.730 9.624,32.782 9.623,32.833 C9.622,32.866 9.617,32.897 9.616,32.929 Z"/>
</svg>