<svg width="25" height="19" viewBox="0 0 25 19" fill="none" xmlns="http://www.w3.org/2000/svg">
<path d="M12.984 14C13.5443 14 14 13.6476 14 13.2141C14 12.7825 13.5451 12.4314 12.9854 12.4314L10.4294 11L10 11.3462L11.9679 13.2377L11.9704 13.2632C12.0023 13.6766 12.4477 14 12.984 14Z" fill="white"/>
<path d="M12.4993 0C5.60682 0 0 5.49152 0 12.2417C0 14.5976 0.685818 16.8858 1.98476 18.8579L2.07835 19H3.63303L5.74034 17.1973L4.83031 16.1742L2.77472 17.9319L2.70782 17.8211C1.69544 16.1256 1.16121 14.1956 1.16121 12.2412C1.16121 12.1844 1.16452 12.1304 1.17094 12.0602L1.17901 11.8546L3.68186 11.8517V10.4949H1.3126L1.33412 10.3699C1.66192 8.47665 2.48602 6.69611 3.7171 5.22057L3.79345 5.1291L5.55785 6.85547L6.54003 5.89839L4.75348 4.14777L4.83755 4.07252C6.67755 2.41567 8.95018 1.4188 11.4112 1.18946L11.5303 1.17872L11.5319 4.00943H12.9162V1.15663L13.0298 1.1621C15.7588 1.28626 18.3472 2.36865 20.3189 4.21087L20.3989 4.28531L18.5725 6.07801L19.5533 7.03671L21.3332 5.29163L21.4094 5.38634C22.5698 6.83101 23.3508 8.55474 23.6657 10.3708L23.6872 10.4953L21.2263 10.4971V11.8543H23.8218L23.8313 12.0725C23.8351 12.1292 23.8388 12.1848 23.8388 12.2416C23.8388 14.1882 23.309 16.1085 22.3073 17.7972L22.2361 17.9172L20.2991 16.0216L19.3214 16.9818L21.3804 18.9999H22.9219L23.0163 18.8571C24.3142 16.8833 25 14.5955 25 12.2411C24.9999 5.49152 19.3925 0 12.4993 0Z" fill="white"/>
</svg>
