<svg width="109" height="35" viewBox="0 0 109 35" fill="none" xmlns="http://www.w3.org/2000/svg">
<path d="M0.3125 35V0.875H10.3906C14.0469 0.875 16.8203 1.63281 18.7109 3.14844C20.6016 4.64844 21.5469 6.86719 21.5469 9.80469C21.5469 11.5703 21.0625 13.1094 20.0938 14.4219C19.1406 15.7188 17.8281 16.6484 16.1562 17.2109C18.1406 17.6484 19.7344 18.625 20.9375 20.1406C22.1562 21.6562 22.7656 23.4062 22.7656 25.3906C22.7656 28.4062 21.7891 30.7656 19.8359 32.4688C17.8984 34.1562 15.1953 35 11.7266 35H0.3125ZM3.19531 18.5938V32.5625H11.8438C14.3125 32.5625 16.2656 31.9375 17.7031 30.6875C19.1562 29.4219 19.8828 27.6719 19.8828 25.4375C19.8828 23.3281 19.1875 21.6641 17.7969 20.4453C16.4219 19.2109 14.5156 18.5938 12.0781 18.5938H3.19531ZM3.19531 16.1797H11.0703C13.4766 16.1328 15.3359 15.5703 16.6484 14.4922C17.9766 13.3984 18.6406 11.8125 18.6406 9.73438C18.6406 7.54688 17.9531 5.9375 16.5781 4.90625C15.2188 3.85937 13.1562 3.33594 10.3906 3.33594H3.19531V16.1797ZM33.5703 0.875L46.1562 30.9922L58.7891 0.875H62.6328V35H59.75V20.1406L59.9844 4.90625L47.2812 35H45.0547L32.3984 5.02344L32.6328 20.0469V35H29.75V0.875H33.5703ZM77.5859 25.7891L78.6406 31.0859L79.9297 26.0234L87.3359 0.875H89.9375L97.25 26.0234L98.5156 31.1328L99.6406 25.7891L105.805 0.875H108.758L100.016 35H97.25L89.5156 8.30469L88.6484 4.92969L87.8047 8.30469L79.8828 35H77.1172L68.3984 0.875H71.3516L77.5859 25.7891Z" fill="white"/>
</svg>
