<svg width="137" height="39" viewBox="0 0 137 39" fill="none" xmlns="http://www.w3.org/2000/svg">
<path d="M31.968 11.784C31.968 10.248 31.68 8.808 31.104 7.464C30.528 6.072 29.712 4.92 28.704 3.912C27.696 2.856 26.496 2.088 25.104 1.464C23.712 0.887999 22.272 0.599999 20.784 0.599999H0L6.384 7.032H20.784C21.408 7.032 22.032 7.128 22.608 7.368C23.232 7.608 23.76 7.944 24.192 8.424C24.624 8.856 24.96 9.384 25.2 9.96C25.44 10.536 25.584 11.16 25.584 11.784C25.584 12.456 25.44 13.08 25.2 13.656C24.96 14.232 24.624 14.76 24.192 15.192C23.76 15.672 23.232 16.008 22.608 16.248C22.032 16.536 21.408 16.632 20.784 16.632H6.384H3.84H0V23.016H6.384H20.784C21.456 23.016 22.08 23.16 22.704 23.4C23.28 23.64 23.76 24.024 24.192 24.456C24.624 24.888 24.96 25.416 25.2 25.992C25.44 26.568 25.584 27.192 25.584 27.816C25.584 28.44 25.44 29.064 25.2 29.64C24.96 30.216 24.624 30.744 24.192 31.176C23.76 31.656 23.232 31.992 22.608 32.232C22.032 32.472 21.408 32.568 20.784 32.568H6.384V39H20.784C22.32 39 23.76 38.712 25.104 38.136C26.496 37.512 27.696 36.744 28.704 35.688C29.712 34.68 30.528 33.528 31.104 32.136C31.68 30.792 31.968 29.352 31.968 27.816C31.968 24.648 30.864 21.96 28.608 19.8C30.864 17.592 31.968 14.904 31.968 11.784ZM33.6562 9.528L52.9043 28.872L65.7683 16.056V39H72.1043V0.599999L52.9043 19.8L33.6562 0.599999V9.528ZM81.3551 0.599999H74.2031L89.8511 31.848L93.4511 24.648L81.3551 0.599999ZM129.595 0.599999L117.547 24.648L109.051 7.752L105.451 14.952L117.547 39L136.747 0.599999H129.595Z" fill="white"/>
</svg>
