<svg
 xmlns="http://www.w3.org/2000/svg"
 xmlns:xlink="http://www.w3.org/1999/xlink"
 width="95px" height="51px">
<path fill-rule="evenodd"  fill="rgb(25, 27, 29)"
 d="M94.992,48.114 L94.992,48.114 C94.997,36.449 90.666,25.197 82.835,16.536 L81.153,14.664 L81.153,14.664 C62.709,-3.889 32.680,-4.012 14.085,14.390 C5.053,23.326 -0.000,35.507 0.057,48.197 L0.057,50.993 L9.328,50.993 L9.328,48.197 L5.688,48.197 C5.689,37.942 9.490,28.050 16.360,20.421 L19.163,22.963 L21.010,20.867 L18.209,18.379 C25.707,11.027 35.713,6.773 46.222,6.475 L46.222,11.812 L49.024,11.812 L49.024,6.363 C59.543,6.690 69.549,10.972 77.035,18.352 L74.236,20.727 L76.083,22.823 L78.884,20.393 C85.699,28.005 89.470,37.851 89.474,48.059 L85.719,48.059 L85.719,50.853 L94.992,50.853 L94.992,48.114 Z"/>
</svg>
